<!--?xml version="1.0" standalone="no"?-->
              <svg id="sw-js-blob-svg" viewBox="0 0 100 100" xmlns="http://www.w3.org/2000/svg" version="1.1">
                    <defs> 
                        <linearGradient id="sw-gradient" x1="0" x2="1" y1="1" y2="0">
                            <stop id="stop1" stop-color="rgba(0, 119, 182, 1)" offset="0%"></stop>
                            <stop id="stop2" stop-color="rgba(255, 255, 255, 1)" offset="100%"></stop>
                        </linearGradient>
                    </defs>
                <path fill="url(#sw-gradient)" d="M13.5,-11.1C19.9,-10.8,28.9,-8.7,28.5,-5.8C28,-2.9,18,0.9,12.5,4.2C7,7.5,5.9,10.4,3.8,11.9C1.6,13.3,-1.6,13.3,-9,14.8C-16.3,16.4,-27.8,19.5,-28.3,17.1C-28.8,14.7,-18.3,6.6,-12.3,2.3C-6.2,-2.1,-4.6,-2.8,-3.3,-4C-2,-5.2,-1,-6.9,1.3,-8.5C3.6,-10,7.2,-11.4,13.5,-11.1Z" width="100%" height="100%" transform="translate(50 50)" stroke-width="0" style="transition: 0.3s;"></path>
              </svg>